# xmcd
#
# Track frame offsets:
#	150
#	15675
#	38127
#	58042
#
# Disc length: 1203 seconds
#
# Revision: 4
# Processed by: cddbd v1.5.1PL0 Copyright (c) Steve Scherf et al.
# Submitted via: audiograbber 1.82.02
#
DISCID=2b04b104
DTITLE=Geri Halliwell - Scream If You Wanna Go Faster [CD Single UK)
DYEAR=2001
DGENRE=Pop
TTITLE0=Scream If You Wanna Go Faster (UK Single Version)
TTITLE1=Scream If You Wanna Go Faster (Sleaze Sisters Anthem Mix Edit)
TTITLE2=Scream If You Wanna Go Faster (Rob Searle Remix Edit)
TTITLE3=Scream If You Wanna Go Faster (Burnt Remix)
EXTD=YEAR: 2001
EXTT0=
EXTT1=
EXTT2=
EXTT3=
PLAYORDER=
